<svg width="280" height="60" viewBox="0 0 280 60" fill="none" xmlns="http://www.w3.org/2000/svg">
    <g clip-path="url(#clip0_319_20)">
        <path d="M78.596 44.4558V45.9698H75.0938V47.953H77.7782V49.4138H75.0938V51.4413H78.596V52.9641H73.0938V44.4558H78.596Z" fill="#3B3B6B"/>
        <path d="M84.1425 47.8998H84.4625C84.7558 47.8998 84.9691 47.8113 85.0936 47.6254L87.0136 44.8454C87.1203 44.6949 87.2358 44.5886 87.378 44.5355C87.5114 44.4824 87.6803 44.4558 87.8758 44.4558H89.6003L87.0669 47.8998C86.978 48.0238 86.8803 48.1212 86.7825 48.2097C86.6847 48.2894 86.5869 48.3602 86.4803 48.4133C86.6314 48.4665 86.7647 48.5461 86.8891 48.6347C87.0136 48.7321 87.1291 48.856 87.2269 49.0154L89.8047 52.9641H88.0358C87.9203 52.9641 87.8225 52.9641 87.7425 52.9464C87.6625 52.9286 87.5914 52.9021 87.5291 52.8755C87.4758 52.8401 87.4225 52.8047 87.378 52.7693C87.3336 52.725 87.2891 52.6719 87.2536 52.6099L85.3158 49.6528C85.2447 49.5377 85.1558 49.4669 85.0491 49.4226C84.9425 49.3784 84.8003 49.3518 84.6136 49.3518H84.1336V52.9729H82.1514V44.4647H84.1336V47.9087L84.1425 47.8998Z" fill="#3B3B6B"/>
        <path d="M97.7421 46.1823C97.6888 46.2708 97.6266 46.3416 97.5555 46.3948C97.4932 46.439 97.4132 46.4656 97.3066 46.4656C97.2177 46.4656 97.1199 46.439 97.0221 46.3771C96.9155 46.3239 96.7999 46.262 96.6666 46.1911C96.5332 46.1203 96.3821 46.0583 96.2132 46.0052C96.0444 45.9432 95.8577 45.9167 95.6444 45.9167C95.271 45.9167 94.9955 45.9964 94.8177 46.1557C94.6399 46.3151 94.5421 46.5276 94.5421 46.7932C94.5421 46.9702 94.5955 47.1119 94.711 47.227C94.8177 47.3332 94.9688 47.4306 95.1377 47.5192C95.3155 47.5988 95.5199 47.6785 95.7421 47.7405C95.9732 47.8113 96.2044 47.8822 96.4444 47.9707C96.6844 48.0504 96.9155 48.1566 97.1466 48.2629C97.3777 48.378 97.5732 48.5196 97.7599 48.6967C97.9377 48.8738 98.0799 49.0862 98.1866 49.3341C98.2932 49.5909 98.3466 49.8919 98.3466 50.2461C98.3466 50.6356 98.2755 51.0075 98.1421 51.3527C98.0088 51.698 97.8044 51.9902 97.5466 52.247C97.2888 52.5037 96.9599 52.6985 96.5866 52.849C96.2044 52.9907 95.7688 53.0703 95.2888 53.0703C95.0221 53.0703 94.7466 53.0438 94.4799 52.9907C94.2044 52.9375 93.9377 52.8578 93.6799 52.7605C93.4221 52.6631 93.1821 52.5391 92.951 52.4063C92.7199 52.2735 92.5244 52.123 92.3555 51.9548L92.9421 51.034C92.9866 50.9632 93.0488 50.9101 93.1199 50.8658C93.1999 50.8215 93.2799 50.8038 93.3777 50.8038C93.4932 50.8038 93.6088 50.8392 93.7332 50.9189C93.8577 50.9986 93.991 51.0783 94.1421 51.1668C94.2932 51.2554 94.4621 51.335 94.6577 51.4147C94.8532 51.4855 95.0844 51.521 95.351 51.521C95.7155 51.521 95.991 51.4413 96.1866 51.2819C96.3821 51.1226 96.4888 50.8747 96.4888 50.5294C96.4888 50.3346 96.4355 50.1664 96.3288 50.0424C96.2221 49.9185 96.0799 49.8122 95.9021 49.7325C95.7244 49.6529 95.5199 49.5732 95.2977 49.5112C95.0755 49.4492 94.8444 49.3784 94.5955 49.3076C94.3555 49.2279 94.1244 49.1394 93.8932 49.0243C93.671 48.918 93.4666 48.7675 93.2888 48.5904C93.111 48.4045 92.9688 48.1832 92.8621 47.9087C92.7555 47.6343 92.7021 47.3067 92.7021 46.9083C92.7021 46.5895 92.7644 46.2797 92.8888 45.9786C93.0221 45.6776 93.2088 45.4032 93.4577 45.1641C93.7066 44.9251 94.0177 44.7392 94.3821 44.5975C94.7466 44.4558 95.1644 44.385 95.6355 44.385C95.9021 44.385 96.151 44.4027 96.3999 44.447C96.6488 44.4824 96.8888 44.5444 97.111 44.6241C97.3332 44.7037 97.5377 44.8011 97.7332 44.9074C97.9288 45.0136 98.0977 45.1464 98.2488 45.2881L97.7599 46.2088L97.7421 46.1823Z" fill="#3B3B6B"/>
        <path d="M103.76 50.1221V52.9641H101.778V44.4558H104.8C105.396 44.4558 105.92 44.5266 106.347 44.6683C106.782 44.81 107.138 45.0047 107.413 45.2526C107.689 45.5005 107.893 45.7927 108.036 46.138C108.169 46.4744 108.231 46.8463 108.231 47.2358C108.231 47.6608 108.16 48.0503 108.027 48.4045C107.893 48.7586 107.68 49.0685 107.396 49.3164C107.111 49.5732 106.765 49.7679 106.329 49.9096C105.902 50.0512 105.387 50.1221 104.8 50.1221H103.769H103.76ZM103.76 48.6258H104.791C105.307 48.6258 105.68 48.5019 105.902 48.2628C106.133 48.0149 106.24 47.6785 106.24 47.2358C106.24 47.041 106.213 46.864 106.151 46.7046C106.089 46.5452 106.009 46.4036 105.885 46.2973C105.769 46.1822 105.609 46.0937 105.431 46.0317C105.253 45.9698 105.04 45.9344 104.782 45.9344H103.751V48.6347L103.76 48.6258Z" fill="#3B3B6B"/>
        <path d="M117.2 44.4558V45.9698H113.689V47.953H116.374V49.4138H113.689V51.4413H117.2V52.9641H111.698V44.4558H117.2Z" fill="#3B3B6B"/>
        <path d="M122.756 49.8123V52.9553H120.773V44.447H123.556C124.178 44.447 124.702 44.509 125.138 44.6329C125.573 44.7569 125.929 44.934 126.205 45.1642C126.48 45.3855 126.676 45.6511 126.8 45.961C126.925 46.2709 126.987 46.6073 126.987 46.9614C126.987 47.2359 126.951 47.5015 126.88 47.7494C126.809 47.9973 126.693 48.2186 126.551 48.4311C126.409 48.6436 126.222 48.8295 126.009 48.9889C125.796 49.1483 125.547 49.2899 125.271 49.3873C125.405 49.4493 125.529 49.5378 125.645 49.6352C125.76 49.7326 125.858 49.8565 125.947 49.9893L127.76 52.9464H125.965C125.636 52.9464 125.396 52.8225 125.253 52.5746L123.84 50.1044C123.778 49.9982 123.707 49.9185 123.618 49.8654C123.538 49.8211 123.413 49.7946 123.262 49.7946H122.756V49.8123ZM122.756 48.4577H123.556C123.822 48.4577 124.053 48.4223 124.24 48.3514C124.436 48.2806 124.587 48.1921 124.702 48.0681C124.827 47.9442 124.916 47.8114 124.969 47.6432C125.022 47.4838 125.049 47.3067 125.049 47.1208C125.049 46.7489 124.925 46.4568 124.676 46.2443C124.436 46.0407 124.053 45.9344 123.547 45.9344H122.747V48.4577H122.756Z" fill="#3B3B6B"/>
        <path d="M136.872 44.4558V46.014H134.472V52.9552H132.489V46.014H130.089V44.4558H136.88H136.872Z" fill="#3B3B6B"/>
        <path d="M146.827 47.8998H147.147C147.44 47.8998 147.654 47.8113 147.778 47.6254L149.698 44.8454C149.805 44.6949 149.92 44.5886 150.062 44.5355C150.196 44.4824 150.365 44.4558 150.56 44.4558H152.285L149.751 47.8998C149.662 48.0238 149.565 48.1212 149.467 48.2097C149.369 48.2894 149.271 48.3602 149.165 48.4133C149.307 48.4665 149.449 48.5461 149.574 48.6347C149.698 48.7321 149.814 48.856 149.911 49.0154L152.489 52.9641H150.72C150.614 52.9641 150.516 52.9641 150.436 52.9464C150.356 52.9286 150.285 52.9021 150.231 52.8755C150.169 52.8401 150.125 52.8047 150.08 52.7693C150.036 52.725 150 52.6719 149.956 52.6099L148.018 49.6528C147.947 49.5377 147.858 49.4669 147.751 49.4226C147.645 49.3784 147.494 49.3518 147.316 49.3518H146.836V52.9729H144.854V44.4647H146.836V47.9087L146.827 47.8998Z" fill="#3B3B6B"/>
        <path d="M157.636 49.8123V52.9553H155.653V44.447H158.436C159.058 44.447 159.573 44.509 160.018 44.6329C160.453 44.7569 160.809 44.934 161.084 45.1642C161.36 45.3855 161.564 45.6511 161.689 45.961C161.813 46.2709 161.876 46.6073 161.876 46.9614C161.876 47.2359 161.84 47.5015 161.769 47.7494C161.698 47.9973 161.582 48.2186 161.44 48.4311C161.298 48.6436 161.111 48.8295 160.907 48.9889C160.693 49.1483 160.444 49.2899 160.169 49.3873C160.302 49.4493 160.427 49.5378 160.542 49.6352C160.658 49.7326 160.756 49.8565 160.844 49.9893L162.658 52.9464H160.862C160.524 52.9464 160.284 52.8225 160.151 52.5746L158.729 50.1044C158.667 49.9982 158.596 49.9185 158.507 49.8654C158.418 49.8211 158.302 49.7946 158.151 49.7946H157.644L157.636 49.8123ZM157.636 48.4577H158.436C158.711 48.4577 158.933 48.4223 159.12 48.3514C159.307 48.2806 159.467 48.1921 159.591 48.0681C159.707 47.9442 159.796 47.8114 159.858 47.6432C159.911 47.4838 159.938 47.3067 159.938 47.1208C159.938 46.7489 159.813 46.4568 159.573 46.2443C159.324 46.0407 158.951 45.9344 158.436 45.9344H157.636V48.4577Z" fill="#3B3B6B"/>
        <path d="M171.396 44.4558V45.9698H167.885V47.953H170.569V49.4138H167.885V51.4413H171.396V52.9641H165.894V44.4558H171.396Z" fill="#3B3B6B"/>
        <path d="M182.72 48.7055C182.72 49.3253 182.614 49.8919 182.4 50.4142C182.187 50.9366 181.885 51.3793 181.502 51.76C181.111 52.1407 180.649 52.4329 180.107 52.6453C179.565 52.8578 178.951 52.9641 178.294 52.9641H174.978V44.4558H178.294C178.96 44.4558 179.565 44.5621 180.107 44.7745C180.649 44.987 181.12 45.2792 181.502 45.6599C181.885 46.0406 182.187 46.4833 182.4 47.0056C182.614 47.528 182.72 48.0946 182.72 48.6967V48.7055ZM180.694 48.7055C180.694 48.2894 180.64 47.9087 180.534 47.5634C180.427 47.227 180.267 46.9348 180.062 46.7046C179.858 46.4656 179.609 46.2885 179.307 46.1645C179.014 46.0406 178.667 45.9698 178.294 45.9698H176.969V51.4413H178.294C178.676 51.4413 179.014 51.3793 179.307 51.2553C179.609 51.1314 179.858 50.9543 180.062 50.7153C180.267 50.4762 180.427 50.1929 180.534 49.8565C180.649 49.52 180.694 49.1393 180.694 48.7144V48.7055Z" fill="#3B3B6B"/>
        <path d="M189.903 49.7325V52.9641H187.92V49.7325L184.827 44.4558H186.569C186.738 44.4558 186.88 44.4912 186.978 44.5709C187.076 44.6506 187.165 44.7568 187.227 44.8808L188.436 47.3598C188.534 47.5634 188.623 47.7405 188.703 47.9087C188.783 48.0769 188.854 48.2451 188.916 48.4045C188.978 48.2363 189.04 48.0681 189.129 47.8998C189.209 47.7316 189.298 47.5545 189.396 47.3598L190.587 44.8808C190.614 44.8365 190.64 44.7834 190.685 44.7303C190.729 44.6771 190.774 44.6329 190.827 44.5975C190.88 44.5532 190.934 44.5178 191.005 44.5001C191.076 44.4735 191.147 44.4647 191.227 44.4647H192.987L189.894 49.7414L189.903 49.7325Z" fill="#3B3B6B"/>
        <path d="M202.232 44.4558V46.014H199.832V52.9552H197.849V46.014H195.44V44.4558H202.232Z" fill="#3B3B6B"/>
        <path d="M213.573 48.7056C213.573 49.3253 213.467 49.8919 213.253 50.4231C213.04 50.9544 212.747 51.4147 212.356 51.8043C211.973 52.1938 211.502 52.5037 210.96 52.7251C210.418 52.9464 209.813 53.0615 209.147 53.0615C208.48 53.0615 207.876 52.9553 207.324 52.7251C206.773 52.5037 206.311 52.1938 205.92 51.8043C205.529 51.4147 205.227 50.9544 205.013 50.4231C204.8 49.8919 204.693 49.3164 204.693 48.7056C204.693 48.0947 204.8 47.5192 205.013 46.988C205.227 46.4568 205.529 45.9964 205.92 45.6068C206.311 45.2173 206.773 44.9074 207.324 44.686C207.876 44.4647 208.48 44.3496 209.147 44.3496C209.813 44.3496 210.418 44.4559 210.96 44.686C211.502 44.9074 211.973 45.2173 212.356 45.6068C212.747 45.9964 213.04 46.4568 213.253 46.9791C213.467 47.5103 213.573 48.0858 213.573 48.6878V48.7056ZM211.547 48.7056C211.547 48.2894 211.493 47.9087 211.387 47.5723C211.28 47.2359 211.12 46.9526 210.916 46.7135C210.711 46.4833 210.462 46.3062 210.16 46.1734C209.858 46.0495 209.52 45.9875 209.147 45.9875C208.773 45.9875 208.418 46.0495 208.124 46.1734C207.822 46.2974 207.573 46.4745 207.369 46.7135C207.164 46.9526 207.004 47.2359 206.898 47.5723C206.791 47.9087 206.738 48.2894 206.738 48.7056C206.738 49.1217 206.791 49.5112 206.898 49.8477C207.004 50.1841 207.164 50.4674 207.369 50.7065C207.573 50.9366 207.831 51.1137 208.124 51.2377C208.427 51.3616 208.764 51.4236 209.147 51.4236C209.529 51.4236 209.858 51.3616 210.16 51.2377C210.453 51.1137 210.711 50.9366 210.916 50.7065C211.12 50.4763 211.28 50.1841 211.387 49.8477C211.493 49.5112 211.547 49.1305 211.547 48.7056Z" fill="#3B3B6B"/>
        <path d="M216.329 44.4558H217.991C218.169 44.4558 218.311 44.4912 218.427 44.5709C218.542 44.6506 218.614 44.748 218.649 44.8808L219.822 49.3253C219.867 49.4669 219.902 49.6263 219.938 49.7856C219.974 49.945 220.009 50.1221 220.027 50.2991C220.071 50.1132 220.107 49.945 220.16 49.7768C220.205 49.6174 220.249 49.4669 220.294 49.3253L221.68 44.8808C221.716 44.7745 221.787 44.6771 221.902 44.5886C222.018 44.5001 222.16 44.4558 222.32 44.4558H222.907C223.076 44.4558 223.218 44.4912 223.334 44.5709C223.449 44.6417 223.52 44.748 223.565 44.8808L224.934 49.3253C224.978 49.4581 225.022 49.6086 225.067 49.7591C225.111 49.9184 225.156 50.0778 225.191 50.2549C225.227 50.0867 225.254 49.9184 225.289 49.7679C225.325 49.6086 225.36 49.4669 225.396 49.3341L226.569 44.8896C226.605 44.7745 226.676 44.6771 226.791 44.5886C226.907 44.5001 227.049 44.4647 227.209 44.4647H228.774L226.134 52.9729H224.338L222.729 47.6962C222.702 47.6165 222.676 47.528 222.649 47.4306C222.614 47.3332 222.587 47.227 222.56 47.1207C222.534 47.227 222.507 47.3332 222.48 47.4306C222.445 47.528 222.418 47.6165 222.391 47.6962L220.765 52.9729H218.969L216.329 44.4647V44.4558Z" fill="#3B3B6B"/>
        <path d="M236.231 49.7325V52.9641H234.249V49.7325L231.156 44.4558H232.907C233.076 44.4558 233.218 44.4912 233.316 44.5709C233.414 44.6506 233.502 44.7568 233.565 44.8808L234.774 47.3598C234.871 47.5634 234.96 47.7405 235.04 47.9087C235.12 48.0769 235.2 48.2451 235.262 48.4045C235.325 48.2363 235.387 48.0681 235.476 47.8998C235.556 47.7316 235.645 47.5545 235.742 47.3598L236.934 44.8808C236.96 44.8365 236.987 44.7834 237.031 44.7303C237.076 44.6771 237.12 44.6329 237.174 44.5975C237.227 44.5532 237.289 44.5178 237.36 44.5001C237.431 44.4735 237.502 44.4647 237.582 44.4647H239.342L236.249 49.7414L236.231 49.7325Z" fill="#3B3B6B"/>
        <path d="M280 31.8306H73.0938V33.1586H280V31.8306Z" fill="#3B3B6B"/>
        <path d="M73.0938 25.9429V7.41242H76.8004L81.2093 20.5334C81.6182 21.7552 81.9115 22.6671 82.0982 23.278C82.3115 22.6051 82.6404 21.6135 83.0938 20.3032L87.5471 7.40356H90.8626V25.934H88.4893V10.4315L83.0849 25.9429H80.8626L75.4849 10.1659V25.9429H73.1115H73.0938Z" fill="#3B3B6B"/>
        <path d="M100.409 7.4126H97.9468V25.9431H100.409V7.4126Z" fill="#3B3B6B"/>
        <path d="M120.738 19.4446L123.2 20.0644C122.685 22.083 121.751 23.6146 120.418 24.6771C119.076 25.7306 117.431 26.2618 115.494 26.2618C113.556 26.2618 111.858 25.8546 110.605 25.0401C109.351 24.2255 108.391 23.048 107.734 21.5075C107.076 19.967 106.756 18.3114 106.756 16.5407C106.756 14.6106 107.12 12.9284 107.867 11.4941C108.605 10.0599 109.654 8.97088 111.023 8.21833C112.391 7.47463 113.894 7.10278 115.538 7.10278C117.396 7.10278 118.96 7.57202 120.231 8.51935C121.503 9.46668 122.383 10.7947 122.88 12.5034L120.454 13.0701C120.018 11.7243 119.396 10.7416 118.578 10.1218C117.76 9.51095 116.72 9.20107 115.485 9.20107C114.054 9.20107 112.863 9.53751 111.903 10.2281C110.943 10.9098 110.267 11.8217 109.876 12.9815C109.485 14.1325 109.289 15.3189 109.289 16.5407C109.289 18.1166 109.52 19.4889 109.983 20.6664C110.445 21.8439 111.156 22.7204 112.134 23.3048C113.103 23.8891 114.16 24.1813 115.298 24.1813C116.676 24.1813 117.84 23.7829 118.8 22.9949C119.751 22.2069 120.4 21.0294 120.738 19.4712V19.4446Z" fill="#3B3B6B"/>
        <path d="M129.014 25.9431V7.4126H131.476V15.0266H141.147V7.4126H143.609V25.9431H141.147V17.2046H131.476V25.9431H129.014Z" fill="#3B3B6B"/>
        <path d="M148.374 25.9431L155.52 7.4126H158.169L165.787 25.9431H162.987L160.818 20.3299H153.04L150.996 25.9431H148.382H148.374ZM153.742 18.329H160.054L158.116 13.194C157.52 11.6357 157.085 10.352 156.8 9.35152C156.56 10.5379 156.222 11.7243 155.796 12.8929L153.751 18.329H153.742Z" fill="#3B3B6B"/>
        <path d="M170.302 18.8071L168.462 20.3565V18.2493L170.302 16.6823V7.4126H172.765V14.5928L176.978 11.0425V13.1585L172.765 16.7088V23.7651H182.009V25.9519H170.302V18.8071Z" fill="#3B3B6B"/>
        <path d="M196.303 20.6841L198.525 20.383C198.587 21.7996 198.854 22.7646 199.325 23.287C199.796 23.8094 200.454 24.075 201.29 24.075C201.903 24.075 202.436 23.9333 202.89 23.65C203.334 23.3667 203.645 22.986 203.814 22.499C203.983 22.0121 204.072 21.2418 204.072 20.1794V7.4126H206.534V20.0377C206.534 21.5871 206.347 22.7912 205.974 23.6411C205.592 24.4911 204.996 25.1374 204.178 25.5889C203.361 26.0316 202.401 26.2529 201.307 26.2529C199.672 26.2529 198.427 25.7837 197.556 24.8541C196.685 23.9156 196.267 22.5256 196.303 20.6841Z" fill="#3B3B6B"/>
        <path d="M211.218 25.9431L218.365 7.4126H221.014L228.632 25.9431H225.823L223.654 20.3299H215.876L213.832 25.9431H211.218ZM216.587 18.329H222.889L220.952 13.194C220.356 11.6357 219.92 10.352 219.636 9.35152C219.396 10.5379 219.058 11.7243 218.632 12.8929L216.587 18.329Z" fill="#3B3B6B"/>
        <path d="M233.289 25.9431V7.4126H235.814L245.591 21.9678V7.4126H247.956V25.9431H245.431L235.662 11.379V25.9431H233.298H233.289Z" fill="#3B3B6B"/>
        <path d="M257.671 7.4126H255.209V25.9431H257.671V7.4126Z" fill="#3B3B6B"/>
        <path d="M264.622 25.9431V7.4126H267.084V16.6026L276.32 7.4126H279.653L271.849 14.9204L280 25.9431H276.747L270.124 16.5672L267.075 19.5242V25.9431H264.613H264.622Z" fill="#3B3B6B"/>
        <path fill-rule="evenodd" clip-rule="evenodd" d="M0 0.577637L9.52 8.05003V59.5776H0V0.577637Z" fill="#3B3B6B"/>
        <path fill-rule="evenodd" clip-rule="evenodd" d="M28.1426 21.9766L55.1026 0.577637V11.742L28.1426 33.2295V21.9855V21.9766Z" fill="#3B3B6B"/>
        <path fill-rule="evenodd" clip-rule="evenodd" d="M45.6626 22.3131L55.1026 14.761V59.5776H45.6626V22.3131Z" fill="#3B3B6B"/>
        <path fill-rule="evenodd" clip-rule="evenodd" d="M12.8091 20.8875C12.8091 23.9066 15.3335 26.3413 18.3646 26.3413C21.3957 26.3413 23.8402 23.9066 23.8402 20.8875C23.8402 17.8685 21.3957 15.3452 18.3646 15.3452C15.3335 15.3452 12.8091 17.8596 12.8091 20.8875Z" fill="#3B3B6B"/>
    </g>
    <defs>
        <clipPath id="clip0_319_20">
            <rect width="280" height="59" fill="white" transform="translate(0 0.577637)"/>
        </clipPath>
    </defs>
</svg>
