<svg width="273" height="161" viewBox="0 0 273 161" fill="none" xmlns="http://www.w3.org/2000/svg">
    <path d="M8.12491 146.807V145.565H9.64044V154.09C9.64044 155.037 9.64044 156.385 8.79848 157.521C8.14596 158.405 6.94617 159.142 5.30434 159.142C3.80987 159.142 2.77847 158.553 2.18909 157.963C1.59972 157.374 1.05245 156.427 1.05245 155.143H2.54693C2.54693 155.879 2.84161 156.532 3.22049 156.953C3.85196 157.648 4.65183 157.795 5.32539 157.795C6.39889 157.795 7.13561 157.416 7.64078 156.574C8.08281 155.858 8.12491 155.08 8.12491 154.343V153.08C7.61973 153.732 6.67253 154.553 5.13595 154.553C3.85196 154.553 2.82056 154.048 2.147 153.375C1.55762 152.785 0.884057 151.691 0.884057 149.923C0.884057 148.218 1.51553 147.165 2.147 146.534C2.88371 145.818 3.95721 145.355 5.13595 145.355C6.41994 145.355 7.43029 145.902 8.12491 146.807ZM5.30434 146.702C4.37819 146.702 3.74672 147.102 3.32574 147.523C2.58903 148.281 2.44168 149.207 2.44168 149.923C2.44168 150.68 2.58903 151.712 3.43098 152.491C3.91511 152.933 4.50448 153.206 5.30434 153.206C6.10421 153.206 6.73568 152.954 7.2198 152.47C7.80917 151.901 8.2091 150.975 8.2091 149.944C8.2091 148.912 7.83022 148.007 7.28295 147.481C6.79882 146.997 6.08316 146.702 5.30434 146.702ZM16.9311 154.301V145.565H18.4466V146.513C18.594 146.281 19.2465 145.355 20.4252 145.355C20.8883 145.355 21.3935 145.523 21.7724 145.713L21.0567 147.081C20.7199 146.849 20.4042 146.786 20.1727 146.786C19.5622 146.786 19.1834 147.039 18.9518 147.334C18.6992 147.67 18.4466 148.26 18.4466 149.691V154.301H16.9311ZM33.8211 146.807V145.565H35.3366V154.301H33.8211V153.08C33.3159 153.732 32.3687 154.553 30.8322 154.553C28.622 154.553 26.5803 152.996 26.5803 149.923C26.5803 146.913 28.601 145.355 30.8322 145.355C32.5161 145.355 33.4212 146.281 33.8211 146.807ZM31.0005 146.702C29.5061 146.702 28.1379 147.797 28.1379 149.923C28.1379 151.796 29.1903 153.206 31.0005 153.206C32.8529 153.206 33.9053 151.67 33.9053 149.944C33.9053 147.691 32.3477 146.702 31.0005 146.702ZM44.1428 153.08V159.142H42.6273V145.565H44.1428V146.786C45.1742 145.502 46.5003 145.355 47.1318 145.355C49.8682 145.355 51.3837 147.628 51.3837 149.986C51.3837 152.385 49.8471 154.553 47.1949 154.553C45.7847 154.553 44.7954 153.922 44.1428 153.08ZM46.9845 153.206C48.7526 153.206 49.8261 151.733 49.8261 149.986C49.8261 147.839 48.3737 146.702 46.9634 146.702C45.5531 146.702 44.0586 147.86 44.0586 149.965C44.0586 151.754 45.1953 153.206 46.9845 153.206ZM58.1271 154.301V138.956H59.6426V146.576C59.9163 146.218 60.6951 145.355 62.1475 145.355C63.1789 145.355 64.1261 145.776 64.6523 146.555C65.0943 147.207 65.1575 147.923 65.1575 148.891V154.301H63.6419V148.933C63.6419 148.407 63.5998 147.797 63.242 147.334C62.9473 146.955 62.4842 146.702 61.8107 146.702C61.2844 146.702 60.7161 146.849 60.2741 147.376C59.6847 148.07 59.6426 149.102 59.6426 149.733V154.301H58.1271ZM72.4346 145.565H73.9502V154.301H72.4346V145.565ZM72.1189 142.261C72.1189 141.671 72.603 141.187 73.1924 141.187C73.7818 141.187 74.2659 141.671 74.2659 142.261C74.2659 142.85 73.7818 143.334 73.1924 143.334C72.603 143.334 72.1189 142.85 72.1189 142.261ZM88.0742 146.197V148.007C87.2744 146.997 86.1167 146.702 85.3378 146.702C83.7171 146.702 82.2436 147.839 82.2436 149.965C82.2436 152.091 83.7592 153.206 85.3168 153.206C86.2219 153.206 87.3375 152.806 88.1374 151.838V153.648C87.1902 154.343 86.1798 154.553 85.3589 154.553C82.6436 154.553 80.686 152.617 80.686 149.986C80.686 147.313 82.6646 145.355 85.3589 145.355C86.7481 145.355 87.6532 145.902 88.0742 146.197ZM110.91 146.807V138.956H112.425V154.301H110.91V153.08C110.405 153.732 109.457 154.553 107.921 154.553C105.711 154.553 103.669 152.996 103.669 149.923C103.669 146.913 105.69 145.355 107.921 145.355C109.605 145.355 110.51 146.281 110.91 146.807ZM108.089 146.702C106.595 146.702 105.227 147.797 105.227 149.923C105.227 151.796 106.279 153.206 108.089 153.206C109.941 153.206 110.994 151.67 110.994 149.944C110.994 147.691 109.436 146.702 108.089 146.702ZM126.199 151.375L127.462 152.07C127.209 152.554 126.83 153.08 126.388 153.48C125.589 154.196 124.599 154.553 123.484 154.553C121.379 154.553 119.169 153.227 119.169 149.986C119.169 147.376 120.768 145.355 123.4 145.355C125.104 145.355 126.178 146.197 126.704 146.955C127.251 147.733 127.567 149.081 127.525 150.238H120.726C120.747 152.049 121.989 153.206 123.505 153.206C124.22 153.206 124.789 152.996 125.294 152.575C125.694 152.238 126.01 151.796 126.199 151.375ZM120.832 148.975H125.967C125.715 147.607 124.683 146.702 123.4 146.702C122.116 146.702 121.063 147.67 120.832 148.975ZM139.111 146.934L137.87 147.586C137.659 147.081 137.217 146.702 136.649 146.702C136.101 146.702 135.596 147.018 135.596 147.691C135.596 148.323 136.017 148.512 137.007 148.933C138.269 149.46 138.859 149.859 139.196 150.28C139.574 150.744 139.659 151.207 139.659 151.691C139.659 153.522 138.333 154.553 136.649 154.553C136.291 154.553 134.333 154.511 133.597 152.322L134.902 151.775C135.07 152.238 135.575 153.206 136.67 153.206C137.659 153.206 138.101 152.47 138.101 151.817C138.101 150.996 137.512 150.722 136.691 150.365C135.638 149.902 134.965 149.565 134.565 149.081C134.228 148.66 134.165 148.239 134.165 147.797C134.165 146.26 135.238 145.355 136.712 145.355C137.175 145.355 138.417 145.439 139.111 146.934ZM146.09 145.565H147.606V154.301H146.09V145.565ZM145.775 142.261C145.775 141.671 146.259 141.187 146.848 141.187C147.438 141.187 147.922 141.671 147.922 142.261C147.922 142.85 147.438 143.334 146.848 143.334C146.259 143.334 145.775 142.85 145.775 142.261ZM161.583 146.807V145.565H163.098V154.09C163.098 155.037 163.098 156.385 162.256 157.521C161.604 158.405 160.404 159.142 158.762 159.142C157.268 159.142 156.236 158.553 155.647 157.963C155.058 157.374 154.51 156.427 154.51 155.143H156.005C156.005 155.879 156.299 156.532 156.678 156.953C157.31 157.648 158.11 157.795 158.783 157.795C159.857 157.795 160.593 157.416 161.099 156.574C161.541 155.858 161.583 155.08 161.583 154.343V153.08C161.078 153.732 160.13 154.553 158.594 154.553C157.31 154.553 156.278 154.048 155.605 153.375C155.015 152.785 154.342 151.691 154.342 149.923C154.342 148.218 154.973 147.165 155.605 146.534C156.341 145.818 157.415 145.355 158.594 145.355C159.878 145.355 160.888 145.902 161.583 146.807ZM158.762 146.702C157.836 146.702 157.204 147.102 156.784 147.523C156.047 148.281 155.899 149.207 155.899 149.923C155.899 150.68 156.047 151.712 156.889 152.491C157.373 152.933 157.962 153.206 158.762 153.206C159.562 153.206 160.193 152.954 160.678 152.47C161.267 151.901 161.667 150.975 161.667 149.944C161.667 148.912 161.288 148.007 160.741 147.481C160.257 146.997 159.541 146.702 158.762 146.702ZM170.389 154.301V145.565H171.904V146.576C172.178 146.218 172.957 145.355 174.409 145.355C175.441 145.355 176.388 145.776 176.914 146.555C177.356 147.207 177.419 147.923 177.419 148.891V154.301H175.904V148.933C175.904 148.407 175.862 147.797 175.504 147.334C175.209 146.955 174.746 146.702 174.072 146.702C173.546 146.702 172.978 146.849 172.536 147.376C171.947 148.07 171.904 149.102 171.904 149.733V154.301H170.389ZM191.18 151.375L192.442 152.07C192.19 152.554 191.811 153.08 191.369 153.48C190.569 154.196 189.58 154.553 188.464 154.553C186.359 154.553 184.149 153.227 184.149 149.986C184.149 147.376 185.749 145.355 188.38 145.355C190.085 145.355 191.158 146.197 191.685 146.955C192.232 147.733 192.548 149.081 192.506 150.238H185.707C185.728 152.049 186.97 153.206 188.485 153.206C189.201 153.206 189.769 152.996 190.274 152.575C190.674 152.238 190.99 151.796 191.18 151.375ZM185.812 148.975H190.948C190.695 147.607 189.664 146.702 188.38 146.702C187.096 146.702 186.044 147.67 185.812 148.975ZM199.251 154.301V145.565H200.766V146.513C200.914 146.281 201.566 145.355 202.745 145.355C203.208 145.355 203.713 145.523 204.092 145.713L203.376 147.081C203.039 146.849 202.724 146.786 202.492 146.786C201.882 146.786 201.503 147.039 201.271 147.334C201.019 147.67 200.766 148.26 200.766 149.691V154.301H199.251Z" fill="#313841"/>
    <mask id="mask0_236_138" style="mask-type:alpha" maskUnits="userSpaceOnUse" x="18" y="0" width="255" height="59">
        <rect width="254.688" height="58.8043" transform="matrix(1 0 0 -1 18.3115 58.9093)" fill="#E8E8E8"/>
    </mask>
    <g mask="url(#mask0_236_138)">
        <path d="M196.359 54.6886V18.3287H202.667V22.5342C203.806 21.0448 207.048 17.4526 213.093 17.4526C217.386 17.4526 221.329 19.2049 223.519 22.4466C225.359 25.1627 225.622 28.1415 225.622 32.1718V54.6886H219.314V32.347C219.314 30.1567 219.139 27.6159 217.649 25.6883C216.423 24.1113 214.495 23.0599 211.691 23.0599C209.501 23.0599 207.135 23.6732 205.296 25.8636C202.842 28.7548 202.667 33.0479 202.667 35.6764V54.6886H196.359Z" fill="#313841"/>
        <path d="M181.163 42.5103L186.419 45.4015C185.368 47.4167 183.791 49.607 181.951 51.2717C178.622 54.2506 174.504 55.74 169.86 55.74C161.099 55.74 151.899 50.2203 151.899 36.7277C151.899 25.8636 158.558 17.4526 169.51 17.4526C176.607 17.4526 181.075 20.9572 183.265 24.1113C185.543 27.353 186.857 32.9603 186.682 37.7791H158.383C158.47 45.3139 163.64 50.1327 169.948 50.1327C172.927 50.1327 175.292 49.2566 177.395 47.5043C179.06 46.1024 180.374 44.2625 181.163 42.5103ZM158.821 32.5222H180.199C179.147 26.8273 174.854 23.0599 169.51 23.0599C164.165 23.0599 159.785 27.0902 158.821 32.5222Z" fill="#313841"/>
        <path d="M117.729 18.3287H124.037V54.6886H117.729V18.3287ZM116.415 4.57331C116.415 2.12011 118.43 0.10498 120.883 0.10498C123.336 0.10498 125.351 2.12011 125.351 4.57331C125.351 7.0265 123.336 9.04163 120.883 9.04163C118.43 9.04163 116.415 7.0265 116.415 4.57331Z" fill="#313841"/>
        <path d="M49.5893 54.6886H42.9307L52.6558 -6.99176L75.0851 42.335L97.9524 -7.07938L107.064 54.6886H100.406L94.8859 14.0356L74.9975 57.1418L55.3719 14.0356L49.5893 54.6886Z" fill="#313841"/>
    </g>
    <path d="M265.377 70.8135H271.685V127.325H265.377V70.8135ZM264.063 57.0581C264.063 54.6049 266.078 52.5898 268.531 52.5898C270.985 52.5898 273 54.6049 273 57.0581C273 59.5113 270.985 61.5264 268.531 61.5264C266.078 61.5264 264.063 59.5113 264.063 57.0581Z" fill="#313841"/>
    <path d="M247.384 75.9828V70.8135H253.692V107.173H247.384V102.092C245.281 104.808 241.339 108.225 234.943 108.225C225.743 108.225 217.245 101.741 217.245 88.9497C217.245 76.4208 225.656 69.9374 234.943 69.9374C241.952 69.9374 245.719 73.7924 247.384 75.9828ZM235.644 75.5447C229.423 75.5447 223.728 80.1006 223.728 88.9497C223.728 96.7473 228.109 102.617 235.644 102.617C243.354 102.617 247.734 96.2216 247.734 89.0373C247.734 79.6625 241.251 75.5447 235.644 75.5447Z" fill="#313841"/>
    <path d="M195.743 107.173V70.8135H202.051V74.7562C202.665 73.7924 205.381 69.9374 210.287 69.9374C212.215 69.9374 214.317 70.6383 215.894 71.4268L212.916 77.1217C211.514 76.158 210.199 75.8951 209.236 75.8951C206.695 75.8951 205.118 76.9465 204.154 78.1731C203.103 79.5749 202.051 82.0281 202.051 87.9859V107.173H195.743Z" fill="#313841"/>
    <path d="M180.81 94.995L186.066 97.8863C185.015 99.9014 183.438 102.092 181.598 103.756C178.269 106.735 174.151 108.225 169.507 108.225C160.746 108.225 151.546 102.705 151.546 89.2125C151.546 78.3483 158.205 69.9374 169.157 69.9374C176.254 69.9374 180.722 73.4419 182.912 76.5961C185.19 79.8378 186.504 85.4451 186.329 90.2639H158.03C158.117 97.7987 163.287 102.617 169.595 102.617C172.574 102.617 174.939 101.741 177.042 99.989C178.707 98.5872 180.021 96.7473 180.81 94.995ZM158.468 85.007H179.846C178.794 79.3121 174.501 75.5447 169.157 75.5447C163.812 75.5447 159.432 79.5749 158.468 85.007Z" fill="#313841"/>
    <path d="M135.862 70.8135H142.17V107.173H135.862V70.8135ZM134.548 57.0581C134.548 54.6049 136.563 52.5898 139.016 52.5898C141.469 52.5898 143.484 54.6049 143.484 57.0581C143.484 59.5113 141.469 61.5264 139.016 61.5264C136.563 61.5264 134.548 59.5113 134.548 57.0581Z" fill="#313841"/>
    <path d="M95.149 102.092V107.173H88.8408L88.8408 50.8822H95.149V75.8951C99.4421 70.5507 104.962 69.9374 107.59 69.9374C118.98 69.9374 125.288 79.3997 125.288 89.2125C125.288 99.2005 118.892 108.225 107.853 108.225C101.983 108.225 97.8651 105.596 95.149 102.092ZM106.977 102.617C114.337 102.617 118.805 96.4845 118.805 89.2125C118.805 80.2758 112.759 75.5447 106.889 75.5447C101.019 75.5447 94.7986 80.3634 94.7986 89.1249C94.7986 96.5721 99.5298 102.617 106.977 102.617Z" fill="#313841"/>
    <path d="M62.49 108.225C51.4506 108.225 43.2148 100.164 43.2148 89.1249C43.2148 78.0855 51.363 69.9374 62.49 69.9374C73.617 69.9374 81.7651 78.0855 81.7651 89.1249C81.7651 100.164 73.5293 108.225 62.49 108.225ZM62.49 75.5447C55.8313 75.5447 49.6983 80.2759 49.6983 89.1249C49.6983 98.0615 56.0065 102.617 62.49 102.617C69.061 102.617 75.2816 97.9739 75.2816 89.1249C75.2816 80.1882 69.1486 75.5447 62.49 75.5447Z" fill="#313841"/>
    <path d="M34.4324 56.8829L29.2631 60.2998C28.4746 58.7228 27.1604 56.9705 25.8462 55.9191C24.7072 55.043 22.6045 53.904 19.2751 53.904C13.4926 53.904 9.46233 57.4962 9.46233 62.9283C9.46233 65.2062 10.0756 66.5204 11.6527 68.0099C13.405 69.7622 15.5953 70.7259 17.7857 71.6897L23.393 74.1429C26.8099 75.6323 29.964 77.2094 32.4172 79.6626C35.3961 82.6414 36.6227 86.0584 36.6227 90.2639C36.6227 101.04 28.6498 108.225 18.1361 108.225C14.2811 108.225 9.46233 107.436 5.43208 103.494C2.54081 100.69 0.788528 96.6597 0 93.1551L6.30822 91.4029C6.74629 94.4694 8.14812 97.0978 9.81279 98.8501C12.3536 101.391 15.2449 102.092 18.2237 102.092C26.1966 102.092 29.9641 96.3969 29.9641 90.5267C29.9641 87.8983 29.1755 85.6203 27.0728 83.6928C25.4081 82.1158 23.1301 81.0644 20.0636 79.6626L14.8068 77.2094C12.5288 76.158 9.63756 74.9314 7.00914 72.3906C4.46832 69.9374 2.97888 67.2213 2.97888 62.8406C2.97888 53.8164 9.9004 47.771 19.3627 47.771C22.9549 47.771 25.8462 48.4719 28.7375 50.3994C31.103 51.9765 33.1182 54.3421 34.4324 56.8829Z" fill="#313841"/>
    <circle cx="139.017" cy="57.0707" r="4.48094" fill="#F62DAE"/>
    <path d="M142.261 51.7465C141.316 51.1695 140.205 50.8373 139.017 50.8373C137.903 50.8374 136.858 51.1307 135.953 51.6429V0.0999756H142.261V51.7465Z" fill="#313841"/>
    <circle cx="4.48094" cy="124.212" r="4.48094" fill="#F62DAE"/>
    <path d="M271.698 127.325H9.88135C10.4105 126.409 10.7143 125.346 10.7144 124.212C10.7143 123.079 10.4105 122.016 9.88135 121.1H271.698V127.325ZM8.87842 125.066C8.86196 125.15 8.84468 125.234 8.82373 125.317C8.84467 125.234 8.86209 125.15 8.87842 125.066ZM8.95264 124.479C8.95786 124.391 8.96142 124.302 8.96143 124.212C8.96142 123.983 8.94418 123.757 8.91064 123.537V123.538C8.94436 123.758 8.96239 123.983 8.9624 124.212L8.95654 124.443C8.95593 124.455 8.95335 124.467 8.95264 124.479ZM8.92432 124.785C8.91429 124.862 8.90208 124.938 8.88818 125.014C8.90195 124.938 8.91442 124.862 8.92432 124.785Z" fill="#313841"/>
    <circle cx="268.519" cy="57.0707" r="4.48094" fill="#F62DAE"/>
    <path d="M252.933 17.453C259.941 17.4531 263.708 21.3076 265.373 23.4979V18.329H271.682V51.701C270.754 51.1531 269.672 50.8378 268.517 50.8378C267.37 50.8378 266.296 51.1489 265.373 51.6893V49.6073C263.27 52.3232 259.328 55.74 252.933 55.7401C243.733 55.7401 235.234 49.2564 235.234 36.4647C235.234 23.936 243.646 17.453 252.933 17.453ZM265.666 53.6132C265.564 53.697 265.467 53.7855 265.373 53.8778C265.416 53.8358 265.459 53.7941 265.503 53.7538L265.666 53.6132ZM253.633 23.0594C247.412 23.0596 241.718 27.616 241.718 36.4647C241.718 44.2623 246.098 50.1325 253.633 50.1327C261.343 50.1327 265.724 43.7369 265.724 36.5526C265.724 27.1779 259.24 23.0594 253.633 23.0594Z" fill="#313841"/>
    <circle cx="120.895" cy="4.58592" r="4.48094" fill="#F62DAE"/>
</svg>
